<svg width="166" height="166" viewBox="0 0 166 166" fill="none" xmlns="http://www.w3.org/2000/svg">
<rect width="166" height="166" fill="white"/>
<path d="M107.682 101.74V94.2123C107.682 93.0654 108.645 92.1534 109.79 92.2153L147.656 94.2621C148.717 94.3194 149.548 95.1965 149.548 96.2591V101.74C149.548 102.844 148.652 103.74 147.548 103.74H109.682C108.578 103.74 107.682 102.844 107.682 101.74Z" fill="#1D2226"/>
<path d="M54.6368 53.2068L47.4435 55.5671C46.5745 55.8522 45.8698 54.8283 46.4466 54.1185C46.5348 54.0099 46.6467 53.9229 46.7738 53.8643L50.7834 52.0137L56.9259 50.074L62.4213 48.8179C62.5292 48.7932 62.639 48.7775 62.7495 48.771L68.0793 48.4575L73.5752 48.7808L89.2547 50.074L98.4209 50.685C98.7697 50.7083 99.1064 50.8226 99.3973 51.0165L99.9134 51.3606C100.236 51.5758 100.489 51.8803 100.642 52.2369L100.74 52.4646C100.841 52.7006 100.896 52.9539 100.901 53.2106L101.985 105.086C102.007 106.145 101.199 107.038 100.143 107.121L95.8821 107.458L81.4254 108.49C80.5928 108.55 79.8109 108.086 79.4639 107.327L77.5954 103.239C77.5022 103.036 77.3755 102.849 77.2204 102.687L74.2605 99.5985C73.9231 99.2464 73.4686 99.0297 72.9826 98.9892L69.8574 98.7288L61.7752 98.8904L56.7448 99.0384C56.4385 99.0474 56.1385 99.1266 55.8678 99.2699L54.0239 100.246C53.7017 100.417 53.4322 100.672 53.2447 100.985L51.6992 103.56C51.6277 103.68 51.5688 103.806 51.5235 103.937L50.44 107.079C50.1619 107.886 49.4026 108.427 48.5493 108.427H34.2957L19.8827 106.685C19.6861 106.661 19.4942 106.608 19.3132 106.528L19.0623 106.416C18.4962 106.165 18.1313 105.604 18.1313 104.984V103.771C18.1313 103.575 18.2903 103.416 18.4863 103.416C18.5702 103.416 18.6514 103.446 18.7155 103.5L20.2726 104.818C20.5633 105.064 20.9181 105.222 21.2953 105.273L32.6864 106.82C33.3718 106.913 34.0487 106.599 34.42 106.015C34.7453 105.504 35.3092 105.195 35.9152 105.195H38.6601H43.9253C44.2878 105.195 44.6435 105.096 44.9543 104.91L47.836 103.181C48.2754 102.917 48.5969 102.495 48.734 102.001L49.2557 100.123C49.3041 99.9486 49.3286 99.7686 49.3286 99.5877V95.7178C49.3286 94.6132 48.4332 93.7178 47.3286 93.7178H43.0848C41.9802 93.7178 41.0848 92.8224 41.0848 91.7178V89.5957C41.0848 89.3291 41.1381 89.0652 41.2415 88.8195L42.2259 86.4816C42.3263 86.2432 42.472 86.0265 42.655 85.8435L44.203 84.2955C44.3855 84.113 44.6015 83.9676 44.8393 83.8672L58.0517 78.2886C58.6619 78.031 59.105 77.4879 59.2349 76.8383L63.6581 54.7225C63.9251 53.3874 62.809 52.1815 61.4573 52.3447L55.0207 53.1215C54.8902 53.1373 54.7616 53.1658 54.6368 53.2068Z" fill="#F3700C"/>
<path d="M20.9161 85.8311L37.5762 79.9144C37.759 79.8495 37.9503 79.8115 38.144 79.8017L48.65 79.2675C50.1174 79.1929 50.5427 81.2404 49.167 81.7563L44.1014 84.2891C43.8185 84.4305 43.5733 84.6369 43.3857 84.8915L41.7136 87.1607C41.5132 87.4328 41.3849 87.7512 41.3408 88.0862L40.8172 92.066C40.6913 93.023 39.8998 93.7535 38.9358 93.8025L31.0628 94.2028L22.819 93.7179L18.8728 93.1542C18.5401 93.1066 18.293 92.8217 18.293 92.4857C18.293 92.4451 18.2966 92.4047 18.3039 92.3649L19.1379 87.7779C19.2188 87.3328 19.4482 86.9283 19.7886 86.6305L20.2684 86.2106C20.4584 86.0444 20.6782 85.9156 20.9161 85.8311Z" fill="white"/>
<path d="M52.4 53.7917L45.2935 56.2079C44.6813 56.4161 44.2075 56.9074 44.0217 57.5268L41.8931 64.6219L38.6603 76.0986L38.4733 76.8464C38.1577 78.1087 39.1125 79.3314 40.4136 79.3314H49.6521L56.9218 78.5581C57.1387 78.535 57.3503 78.4766 57.5484 78.3852L58.4186 77.9835C59.0037 77.7135 59.4229 77.1781 59.5445 76.5453L63.7428 54.7146C63.98 53.4812 63.0348 52.3369 61.7787 52.3369H59.5577C59.4201 52.3369 59.2828 52.3511 59.148 52.3793L52.4 53.7917Z" fill="#1D2226"/>
<path d="M64.6898 75.1534L68.7002 55.5022C68.9002 54.5223 69.7933 53.8407 70.7913 53.9065L94.1753 55.4467C95.2266 55.516 96.0439 56.3889 96.0439 57.4424V72.5762C96.0439 73.5757 95.306 74.4218 94.3158 74.5577L87.8 75.452L67.9178 77.5534H66.6494C65.3841 77.5534 64.4368 76.3932 64.6898 75.1534Z" fill="#1D2226"/>
<path d="M58.0576 59.7725L54.6631 75.2903M74.5453 55.8931V74.1588" stroke="white"/>
<path d="M20.1947 92.023L21.1861 87.4908C21.1972 87.44 21.2191 87.3922 21.2503 87.3506C21.4801 87.0442 21.1402 86.6369 20.7976 86.8082L19.8106 87.3017C19.6668 87.3736 19.5564 87.4983 19.5023 87.6497L18.8948 89.3505C18.8177 89.5664 18.7783 89.7939 18.7783 90.0232V91.8699C18.7783 92.2656 19.0991 92.5863 19.4948 92.5863C19.8315 92.5863 20.1228 92.3519 20.1947 92.023Z" fill="#BF262B"/>
<path d="M25.6198 85.4508L39.9625 80.5156C40.0637 80.4808 40.1699 80.4631 40.277 80.4631C40.3978 80.4631 40.4362 80.6259 40.3282 80.6799L39.1455 81.2713L27.2208 85.7996C26.6835 86.0037 26.2599 86.429 26.0581 86.9671L25.4057 88.7069L24.5976 90.5926C24.4909 90.8415 24.4359 91.1096 24.4359 91.3804V92.2631C24.4359 92.888 23.9293 93.3946 23.3043 93.3946C22.6794 93.3946 22.1728 92.8775 22.1728 92.2526C22.1728 92.1532 22.1858 92.0527 22.2114 91.9566L22.8194 89.6768L23.5112 87.7397C23.5883 87.524 23.7018 87.3231 23.8468 87.1459L24.7226 86.0755C24.9578 85.7879 25.2685 85.5716 25.6198 85.4508Z" fill="#BF262B"/>
<path d="M28.6798 94.0411H28.1723C27.6952 94.0411 27.288 93.6962 27.2095 93.2256C27.1925 93.1234 27.1918 93.0191 27.2076 92.9167L27.5071 90.9699L28.1537 88.7069L28.7283 87.1267C28.7761 86.9951 28.8377 86.8689 28.9119 86.7502L29.2459 86.2158C29.4809 85.8397 29.8343 85.5525 30.2504 85.3991L44.8998 80.002C44.9423 79.9864 44.9881 79.982 45.0328 79.9895C45.2916 80.0326 45.3318 80.3879 45.0892 80.4878L32.8074 85.545C32.4096 85.7088 32.0752 85.9965 31.8539 86.3654L31.8228 86.4173C31.7477 86.5424 31.6866 86.6754 31.6404 86.8138L30.9016 89.0302L30.332 91.0239C30.2809 91.2025 30.255 91.3875 30.255 91.5733V92.4659C30.255 93.3359 29.5498 94.0411 28.6798 94.0411Z" fill="#BF262B"/>
<path d="M35.2285 94.0411H35.1311C34.1017 94.0411 33.3187 93.1168 33.4879 92.1014L33.6296 90.4006C33.6429 90.2419 33.675 90.0853 33.7254 89.9342L34.2961 88.222L34.4931 87.3357C34.5756 86.9644 34.7623 86.6243 35.0312 86.3553L35.3123 86.0743C35.4952 85.8914 35.7119 85.7457 35.9504 85.6453L50.8684 79.364C50.9193 79.3426 50.9739 79.3315 51.029 79.3315C51.4713 79.3315 51.6051 79.9321 51.2047 80.1199L40.1091 85.3252C39.8993 85.4237 39.7082 85.5578 39.5444 85.7217L38.5937 86.6724C38.4241 86.8419 38.2864 87.0406 38.1872 87.259L37.6243 88.4973C37.561 88.6366 37.5139 88.7826 37.4839 88.9327L37.072 90.9922C37.0534 91.085 37.0414 91.179 37.0362 91.2735L36.9742 92.3898C36.9227 93.3162 36.1564 94.0411 35.2285 94.0411Z" fill="#BF262B"/>
<path d="M17 113.514V110.249C17 109.031 18.078 108.097 19.2828 108.269L28.3151 109.559L35.9123 110.367H48.3334C49.2402 110.367 49.9754 109.632 49.9754 108.725C49.9754 108.528 50.0108 108.333 50.0799 108.149L50.9452 105.841L52.7598 101.514C52.9449 101.073 53.2819 100.713 53.7098 100.499L55.7291 99.489C55.8799 99.4136 56.0396 99.3575 56.2044 99.3222L58.012 98.9349C58.1497 98.9054 58.2902 98.8905 58.4311 98.8905H63.7151H72.2264C72.5806 98.8905 72.9283 98.9845 73.2342 99.1629L74.4834 99.8916C74.6317 99.9782 74.7684 100.083 74.8898 100.205L77.0029 102.318C77.1944 102.51 77.345 102.738 77.4456 102.989L78.263 105.033L79.4372 107.274C79.8043 107.975 80.5503 108.394 81.3399 108.342L100.278 107.098C101.345 107.028 102.169 106.13 102.146 105.06L101.098 55.1873C101.074 54.0665 101.976 53.1453 103.097 53.1453H103.151C104.234 53.1453 105.12 54.007 105.15 55.0894L106.496 103.221C106.526 104.315 107.43 105.181 108.525 105.165L147.757 104.575C148.742 104.56 149.548 105.354 149.548 106.339C149.548 107.314 148.758 108.104 147.783 108.104H143.627C142.523 108.104 141.627 109 141.627 110.104V112.768C141.627 113.533 140.928 114.107 140.177 113.957C139.611 113.843 139.203 113.346 139.203 112.768V112.355C139.203 112.008 139.098 111.669 138.901 111.383L137.567 109.443C137.472 109.305 137.361 109.18 137.236 109.07L135.117 107.216C134.933 107.055 134.721 106.929 134.491 106.845L132.102 105.964C131.88 105.883 131.646 105.841 131.41 105.841H129.276C129 105.841 128.727 105.898 128.474 106.009L126.69 106.789C126.415 106.91 126.169 107.091 125.974 107.32L124.599 108.923C124.423 109.129 124.29 109.369 124.209 109.628L123.523 111.822L123.171 112.879C122.899 113.696 122.134 114.247 121.274 114.247H118.997H116.715C116.62 114.247 116.526 114.253 116.432 114.267L112.187 114.873C112.094 114.887 111.999 114.893 111.904 114.893H106.551H103.422C102.665 114.893 101.972 115.321 101.634 115.999L101.2 116.866C101.104 117.058 100.977 117.234 100.825 117.386L99.5436 118.667C99.3672 118.844 99.1595 118.986 98.931 119.086L97.0737 119.898C96.8209 120.009 96.548 120.066 96.2721 120.066H93.3323C93.2006 120.066 93.0692 120.053 92.9401 120.027L90.9316 119.625C90.7841 119.596 90.6404 119.55 90.5031 119.488L87.811 118.277C87.59 118.177 87.3889 118.038 87.2175 117.867L86.2844 116.934C85.9094 116.559 85.4007 116.348 84.8702 116.348H83.9206C83.2064 116.348 82.6274 116.927 82.6274 117.641C82.6274 118.355 82.0485 118.934 81.3343 118.934H81.0918C80.2437 118.934 79.5562 118.247 79.5562 117.399V117.332C79.5562 117.215 79.5434 117.099 79.518 116.985L78.9096 114.247L77.8357 111.178C77.7974 111.069 77.7496 110.963 77.693 110.862L75.7573 107.405C75.5982 107.121 75.3722 106.88 75.0988 106.703L72.7671 105.195L70.1332 103.808C69.846 103.657 69.5263 103.578 69.2017 103.578H66.2497C65.9642 103.578 65.682 103.639 65.4221 103.757L62.4486 105.109C62.3234 105.166 62.2044 105.236 62.0935 105.317L60.1364 106.752C59.9376 106.898 59.7675 107.079 59.6346 107.287L57.4522 110.697C57.3181 110.906 57.2243 111.139 57.1755 111.383L56.7042 113.739C56.6377 114.072 56.4876 114.382 56.2681 114.641L52.5807 118.987C52.2566 119.369 51.8009 119.615 51.3038 119.678L49.2045 119.94C48.5715 120.019 48.0141 120.395 47.7043 120.953L47.5251 121.276C47.4348 121.438 47.3224 121.587 47.191 121.719L45.473 123.437C45.35 123.56 45.2114 123.666 45.0609 123.753L42.4602 125.259C42.2985 125.353 42.1245 125.423 41.9432 125.468L39.2224 126.149C39.0638 126.188 38.9009 126.208 38.7374 126.208H36.1585C35.995 126.208 35.8321 126.188 35.6735 126.149L33.0019 125.481C32.7884 125.427 32.5852 125.339 32.4004 125.22L29.9315 123.622L27.8078 121.781C27.6091 121.609 27.4463 121.4 27.3288 121.164L26.681 119.869C26.3946 119.296 25.8092 118.934 25.1687 118.934C25.0042 118.934 24.8405 118.91 24.6829 118.863L21.895 118.027C21.7572 117.985 21.6242 117.929 21.4984 117.859L19.0975 116.525C18.8863 116.408 18.6981 116.254 18.542 116.069L17.4732 114.806C17.1677 114.445 17 113.987 17 113.514Z" fill="#1D2226"/>
<path d="M61.2351 107.772L62.7451 106.811L64.036 106.037C64.2511 105.907 64.4886 105.82 64.7361 105.779L68.0778 105.222C68.1864 105.204 68.2964 105.195 68.4066 105.195H70.2138C70.5113 105.195 70.8051 105.261 71.0737 105.389L73.8795 106.725C73.9997 106.782 74.1252 106.827 74.2543 106.86L75.8834 107.267C76.3738 107.389 76.7997 107.693 77.0752 108.117L78.4871 110.289C78.6585 110.553 78.7653 110.853 78.7989 111.166L79.2328 115.217V118.996C79.2328 119.169 79.2101 119.343 79.1653 119.511L78.0377 123.739C77.9729 123.982 77.863 124.211 77.7136 124.413L75.3264 127.642C75.2369 127.764 75.134 127.874 75.0196 127.972L72.1829 130.404C71.9298 130.621 71.6264 130.771 71.3004 130.841L67.4783 131.66C67.3406 131.689 67.2001 131.704 67.0593 131.704H63.1657C62.8883 131.704 62.614 131.646 62.3602 131.535L58.9081 130.016C58.7725 129.956 58.6439 129.882 58.5248 129.794L55.3322 127.434C55.1042 127.265 54.9146 127.05 54.776 126.803L52.9143 123.478C52.7881 123.253 52.7067 123.005 52.6747 122.749L52.341 120.08C52.2752 119.553 52.4212 119.022 52.7469 118.604L56.7643 113.438L58.704 110.69L60.765 108.188C60.8989 108.025 61.0575 107.885 61.2351 107.772Z" fill="#1D2226"/>
<path d="M64.7233 112.094L66.6402 110.967C66.9476 110.786 67.2977 110.69 67.6543 110.69H69.0481C69.2631 110.69 69.4766 110.725 69.6806 110.793L71.4018 111.367C71.6627 111.454 71.9028 111.594 72.1072 111.778L73.1322 112.7C73.3183 112.867 73.4712 113.068 73.5831 113.292L74.4471 115.02C74.5123 115.151 74.5631 115.288 74.5985 115.429L75.0828 117.366C75.1546 117.654 75.1617 117.953 75.1036 118.244L74.6247 120.638C74.5723 120.901 74.4678 121.15 74.3174 121.371L72.2737 124.376C71.9692 124.824 71.4961 125.129 70.9626 125.222L68.4823 125.653C68.2165 125.699 67.9441 125.691 67.6815 125.63L65.9477 125.222C65.5468 125.127 65.1847 124.912 64.911 124.604L63.018 122.474C62.838 122.272 62.7011 122.035 62.6154 121.778L61.9172 119.683C61.8238 119.403 61.7936 119.105 61.8288 118.812L62.1987 115.73C62.2391 115.393 62.3645 115.072 62.5631 114.797L64.116 112.647C64.278 112.423 64.4848 112.234 64.7233 112.094Z" fill="white"/>
<path d="M64.9512 115.435L65.9255 114.461C66.1716 114.214 66.4777 114.037 66.8135 113.945L67.8208 113.671C67.9923 113.624 68.1693 113.6 68.347 113.6H69.3522C69.785 113.6 70.2061 113.74 70.5522 114L71.4204 114.651C71.7696 114.913 72.0235 115.282 72.1435 115.702L72.5283 117.049C72.5793 117.227 72.6052 117.412 72.6052 117.598V119.35C72.6052 119.713 72.5067 120.068 72.3202 120.379L71.4789 121.781C71.2652 122.138 70.946 122.418 70.5655 122.585L69.3421 123.12C68.8449 123.338 68.2807 123.344 67.7789 123.137L66.3394 122.544C65.9973 122.403 65.701 122.17 65.4834 121.871L64.7723 120.894C64.6079 120.668 64.4928 120.41 64.4342 120.136L64.1249 118.693C64.0676 118.426 64.0657 118.15 64.1193 117.882L64.4043 116.457C64.4817 116.07 64.672 115.714 64.9512 115.435Z" fill="#F3700C"/>
<path d="M127.377 107.297L128.737 106.565C129.029 106.408 129.354 106.326 129.685 106.326H137.203C138.308 106.326 139.203 107.222 139.203 108.326V112.469V114.247V117.654C139.203 117.965 139.131 118.271 138.992 118.548L137.748 121.036L136.091 123.522C135.906 123.8 135.654 124.027 135.358 124.182L133.049 125.398C132.843 125.506 132.619 125.578 132.388 125.609L129.44 126.011C129.268 126.035 129.094 126.036 128.922 126.014L125.739 125.617C125.451 125.58 125.174 125.482 124.928 125.328L122.943 124.088C122.792 123.993 122.654 123.879 122.533 123.748L121.019 122.107C120.858 121.933 120.729 121.732 120.639 121.512L119.743 119.336C119.677 119.177 119.633 119.01 119.61 118.839L118.998 114.247V112.798C118.998 111.853 119.66 111.036 120.586 110.841L121.865 110.572C122.001 110.543 122.139 110.529 122.277 110.529H123.464C124.11 110.529 124.716 110.217 125.092 109.691L125.302 109.397L126.851 107.707C127.003 107.542 127.18 107.403 127.377 107.297Z" fill="#1D2226"/>
<path d="M128.117 111.916L128.986 111.047C129.22 110.813 129.509 110.641 129.826 110.546L130.678 110.29C130.864 110.234 131.058 110.206 131.253 110.206H132.427C132.737 110.206 133.043 110.278 133.321 110.417L134.02 110.766C134.344 110.928 134.618 111.175 134.813 111.481L135.415 112.428C135.568 112.668 135.668 112.937 135.708 113.219L135.95 114.914C135.963 115.008 135.97 115.102 135.97 115.197V116.918C135.97 117.182 135.918 117.443 135.816 117.687L135.27 118.998C135.198 119.17 135.103 119.332 134.986 119.478L134.207 120.451C133.985 120.728 133.694 120.941 133.363 121.068L132.114 121.549C131.885 121.637 131.641 121.682 131.396 121.682H130.595C130.101 121.682 129.624 121.499 129.257 121.169L128.513 120.5C128.314 120.32 128.153 120.102 128.039 119.859L127.267 118.205C127.144 117.94 127.08 117.651 127.08 117.359V115.701V114.234C127.08 113.923 127.152 113.617 127.291 113.339L127.743 112.436C127.839 112.243 127.965 112.068 128.117 111.916Z" fill="white"/>
<path d="M129.495 113.491L130.225 112.827C130.593 112.492 131.073 112.307 131.57 112.307H132C132.572 112.307 133.116 112.551 133.495 112.978L133.785 113.304C134.05 113.602 134.22 113.973 134.273 114.369L134.457 115.752C134.495 116.038 134.471 116.329 134.386 116.605L134.06 117.666C133.935 118.07 133.686 118.424 133.348 118.678L132.462 119.343C132.116 119.602 131.695 119.743 131.262 119.743H131.129C130.512 119.743 129.929 119.458 129.55 118.97L129.29 118.636C129.112 118.407 128.985 118.141 128.92 117.858L128.634 116.62C128.568 116.334 128.566 116.038 128.627 115.751L128.884 114.552C128.972 114.143 129.185 113.772 129.495 113.491Z" fill="#1D2226"/>
<path d="M58.6089 46.0252L59.0171 47.9642C59.1113 48.4115 58.8177 48.8483 58.368 48.9301C57.8697 49.0207 57.411 48.6379 57.411 48.1314V45.9022C57.411 45.7741 57.3987 45.6463 57.3742 45.5205L55.1734 34.2019C55.1583 34.1247 55.1967 34.0469 55.2671 34.0117C55.3701 33.9602 55.494 34.0203 55.5172 34.1332L57.8307 45.3921C57.8686 45.577 58.0313 45.7096 58.22 45.7096C58.4079 45.7096 58.5702 45.8412 58.6089 46.0252Z" fill="#1D2226"/>
<path d="M70.5041 44.3192V46.851C70.5041 47.3812 70.0743 47.811 69.5441 47.811C68.9482 47.811 68.4962 47.2736 68.5983 46.6865L69.0086 44.3275C69.0321 44.1921 69.1497 44.0932 69.2872 44.0932C69.4287 44.0932 69.5485 43.9886 69.5675 43.8484L71.2841 31.2079C71.3003 31.0888 71.402 31 71.5222 31C71.6677 31 71.7798 31.1284 71.7603 31.2726L70.054 43.8367C70.0356 43.9724 70.1411 44.0932 70.278 44.0932C70.4029 44.0932 70.5041 44.1944 70.5041 44.3192Z" fill="#1D2226"/>
<path d="M58.6089 46.0252L59.0171 47.9642C59.1113 48.4115 58.8177 48.8483 58.368 48.9301C57.8697 49.0207 57.411 48.6379 57.411 48.1314V45.9022C57.411 45.7741 57.3987 45.6463 57.3742 45.5205L55.1734 34.2019C55.1583 34.1247 55.1967 34.0469 55.2671 34.0117C55.3701 33.9602 55.494 34.0203 55.5172 34.1332L57.8307 45.3921C57.8686 45.577 58.0313 45.7096 58.22 45.7096C58.4079 45.7096 58.5702 45.8412 58.6089 46.0252Z" stroke="#1D2226"/>
<path d="M70.5041 44.3192V46.851C70.5041 47.3812 70.0743 47.811 69.5441 47.811C68.9482 47.811 68.4962 47.2736 68.5983 46.6865L69.0086 44.3275C69.0321 44.1921 69.1497 44.0932 69.2872 44.0932C69.4287 44.0932 69.5485 43.9886 69.5675 43.8484L71.2841 31.2079C71.3003 31.0888 71.402 31 71.5222 31C71.6677 31 71.7798 31.1284 71.7603 31.2726L70.054 43.8367C70.0356 43.9724 70.1411 44.0932 70.278 44.0932C70.4029 44.0932 70.5041 44.1944 70.5041 44.3192Z" stroke="#1D2226"/>
<path d="M64.5234 77.8767V98.4055" stroke="#873A00"/>
<path d="M94.1044 80.7864H88.1235" stroke="#873A00"/>
<path d="M18.6162 102.379V95.2614C18.6162 94.0853 19.626 93.1631 20.7973 93.2696L23.9505 93.5562L33.1642 94.0412L40.7614 93.5562H47.6518C48.7564 93.5562 49.6518 94.4517 49.6518 95.5562V99.5877C49.6518 99.7686 49.6273 99.9487 49.5789 100.123L49.0516 102.021C48.9178 102.503 48.6085 102.917 48.1846 103.182L45.4506 104.891C45.1327 105.089 44.7654 105.195 44.3906 105.195H36.1223C35.4825 105.195 34.8812 105.501 34.5049 106.018L34.4919 106.036C34.0705 106.615 33.3716 106.925 32.6594 106.848L27.8299 106.326L21.3152 105.29C20.9255 105.228 20.5629 105.052 20.2729 104.784L19.2597 103.849C18.8495 103.47 18.6162 102.937 18.6162 102.379Z" fill="#1D2226"/>
<path d="M35.0955 101.759L35.2947 98.9699C35.3695 97.9233 36.2404 97.1124 37.2896 97.1124H46.5206C47.6251 97.1124 48.5206 98.0078 48.5206 99.1124V99.5596C48.5206 99.759 48.4908 99.9572 48.4321 100.148L48.0835 101.281C47.948 101.721 47.6646 102.101 47.2813 102.357L46.2091 103.072C46.0271 103.193 45.8264 103.284 45.6151 103.34L43.7628 103.834C43.5947 103.879 43.4215 103.901 43.2475 103.901H37.0904C35.9298 103.901 35.0128 102.917 35.0955 101.759Z" fill="white"/>
<path d="M20.3945 96.3042L33.0028 97.1124M20.3945 99.3754L33.0028 100.345M20.7178 101.8L32.5178 102.77M48.5206 99.1124V99.5596C48.5206 99.759 48.4908 99.9572 48.4321 100.148L48.0835 101.281C47.948 101.721 47.6646 102.101 47.2813 102.357L46.2091 103.072C46.0271 103.193 45.8264 103.284 45.6151 103.34L43.7628 103.834C43.5947 103.879 43.4215 103.901 43.2475 103.901H37.0904C35.9298 103.901 35.0128 102.917 35.0955 101.759L35.2947 98.9699C35.3695 97.9233 36.2404 97.1124 37.2896 97.1124H46.5206C47.6251 97.1124 48.5206 98.0078 48.5206 99.1124Z" stroke="white"/>
</svg>
