<svg width="233" height="102" viewBox="0 0 233 102" fill="none" xmlns="http://www.w3.org/2000/svg">
<path d="M90.6821 68.2397V66.8789C90.6821 64.0114 93.0887 61.7314 95.952 61.8862L127.993 63.6181C130.548 63.7562 132.548 65.8675 132.548 68.4254C132.548 71.0843 130.392 73.2397 127.734 73.2397H95.6821C92.9207 73.2397 90.6821 71.0011 90.6821 68.2397Z" fill="#1D2226"/>
<path d="M37.5328 22.741L30.4435 25.0672C29.5745 25.3523 28.8698 24.3284 29.4466 23.6186C29.5348 23.51 29.6467 23.423 29.7738 23.3644L33.7834 21.5138L39.9259 19.5741L45.178 18.3736C45.4478 18.3119 45.7223 18.2728 45.9985 18.2565L51.0793 17.9576L56.5752 18.2809L72.2547 19.5741L81.1281 20.1656C81.6688 20.2017 82.1905 20.3788 82.6414 20.6794L82.7888 20.7776C83.1929 21.0471 83.51 21.4282 83.7013 21.8747C83.8279 22.1701 83.8965 22.4872 83.9032 22.8087L84.9259 71.7551C84.9813 74.4036 82.9614 76.6356 80.3206 76.8441L78.8821 76.9577L66.502 77.842C64.4207 77.9906 62.4659 76.8312 61.5984 74.9335L60.8065 73.2013C60.5736 72.6918 60.2567 72.2251 59.8691 71.8206L58.046 69.9183C57.2024 69.038 56.0663 68.4963 54.8513 68.3951L52.8574 68.2289L44.7752 68.3905L40.4429 68.518C39.6774 68.5405 38.9273 68.7385 38.2505 69.0969L37.7626 69.3551C36.9571 69.7816 36.2835 70.4201 35.8146 71.2016L34.8606 72.7916C34.6818 73.0896 34.5345 73.4055 34.4212 73.7341L34.1373 74.5575C33.4419 76.5741 31.5436 77.9275 29.4104 77.9275H17.2957L2.88266 76.1853C2.68608 76.1615 2.49415 76.1086 2.31321 76.0281L2.06227 75.9166C1.49618 75.665 1.13135 75.1036 1.13135 74.4841V73.2715C1.13135 73.0755 1.29025 72.9166 1.48627 72.9166C1.57022 72.9166 1.65144 72.9463 1.71553 73.0005L2.78645 73.9067C3.3946 74.4213 4.13699 74.7516 4.92638 74.8588L15.6864 76.32C16.3718 76.4131 17.0487 76.0989 17.42 75.5154C17.7453 75.0042 18.3092 74.6946 18.9152 74.6946H21.6601H26.0944C27.0006 74.6946 27.8898 74.4484 28.6669 73.9821L29.8093 73.2966C30.9079 72.6375 31.7116 71.5818 32.0545 70.3474L32.1462 70.0171C32.2673 69.5813 32.3286 69.1311 32.3286 68.6789V67.3398C32.3286 65.0634 30.4832 63.2179 28.2067 63.2179H27.8504C25.7707 63.2179 24.0848 61.532 24.0848 59.4523C24.0848 58.9504 24.1851 58.4536 24.3799 57.9911L24.9979 56.5233C25.2489 55.9272 25.6131 55.3855 26.0705 54.9281L26.7886 54.21C27.2447 53.7539 27.7849 53.3903 28.3792 53.1393L39.5884 48.4066C41.114 47.7624 42.2217 46.4047 42.5464 44.7809L45.8454 28.2859C46.513 24.9481 43.7228 21.9335 40.3434 22.3413L38.1294 22.6085C37.9266 22.633 37.7268 22.6774 37.5328 22.741Z" fill="#F3700C"/>
<path d="M4.12851 55.2557L20.4524 49.4584C20.7173 49.3643 20.9945 49.3093 21.2752 49.295L31.65 48.7675C33.1174 48.6929 33.5427 50.7404 32.167 51.2563L27.7468 53.4663C27.0397 53.8199 26.4266 54.336 25.9576 54.9725L25.172 56.0386C24.6709 56.7187 24.3502 57.5147 24.24 58.3523L24.1432 59.0882C23.8284 61.4806 21.8498 63.3069 19.4399 63.4294L14.0628 63.7028L5.819 63.2179L1.87277 62.6542C1.54008 62.6066 1.29297 62.3217 1.29297 61.9857C1.29297 61.9451 1.29661 61.9047 1.30386 61.8649L2.06414 57.6833C2.19279 56.9758 2.5575 56.3327 3.09875 55.8591C3.40084 55.5948 3.75025 55.39 4.12851 55.2557Z" fill="white"/>
<path d="M35.4 23.2917L29.7571 25.2103C28.2265 25.7307 27.042 26.959 26.5775 28.5074L24.8931 34.1219L21.6603 45.5986C21.2497 47.2407 22.4917 48.8314 24.1844 48.8314H32.6521L39.6903 48.0827C40.0605 48.0433 40.4217 47.9436 40.7598 47.7876C41.7584 47.3267 42.4739 46.4128 42.6816 45.3327L46.3564 26.2238C46.794 23.9481 45.0502 21.8369 42.7327 21.8369C42.4787 21.8369 42.2254 21.8631 41.9768 21.9152L35.4 23.2917Z" fill="#1D2226"/>
<path d="M47.9434 43.4106L51.1766 27.568C51.6766 25.1181 53.9094 23.4142 56.4043 23.5786L74.3725 24.7621C77.0006 24.9352 79.0439 27.1174 79.0439 29.7513V39.4599C79.0439 41.9586 77.1992 44.0737 74.7237 44.4134L70.8 44.952L50.9178 47.0534C48.9973 47.0534 47.5594 45.2924 47.9434 43.4106Z" fill="#1D2226"/>
<path d="M41.0576 29.2726L37.6631 44.7905M57.5453 25.3932V43.659" stroke="white" stroke-width="5"/>
<path d="M3.19471 61.523L4.18612 56.9908C4.19723 56.94 4.21912 56.8922 4.25032 56.8506C4.48013 56.5442 4.1402 56.1369 3.79763 56.3082L2.81061 56.8017C2.66682 56.8736 2.55635 56.9983 2.50228 57.1497L1.9228 58.7722C1.82719 59.0399 1.77832 59.3221 1.77832 59.6063V61.3699C1.77832 61.7656 2.09909 62.0863 2.49479 62.0863C2.83149 62.0863 3.12276 61.8519 3.19471 61.523Z" fill="#BF262B"/>
<path d="M9.42579 54.6734L22.9625 50.0156C23.0637 49.9808 23.1699 49.9631 23.277 49.9631C23.3978 49.9631 23.4362 50.1259 23.3282 50.1799L22.1455 50.7713L11.4886 54.8182C10.1453 55.3283 9.08647 56.3916 8.58197 57.7369L8.40572 58.2069L7.59852 60.0904C7.49119 60.3408 7.43586 60.6104 7.43586 60.8828V61.7631C7.43586 62.388 6.92926 62.8946 6.30435 62.8946C5.67944 62.8946 5.17284 62.3775 5.17284 61.7526C5.17284 61.6532 5.18582 61.5527 5.21145 61.4566L5.81942 59.1768L6.33662 57.7286C6.5292 57.1894 6.81572 56.6839 7.1783 56.2407C7.7664 55.5219 8.5476 54.9756 9.42579 54.6734Z" fill="#BF262B"/>
<path d="M11.6798 63.5411H11.1723C10.6952 63.5411 10.288 63.1962 10.2095 62.7256C10.1925 62.6234 10.1918 62.5191 10.2076 62.4167L10.5071 60.4699L11.1537 58.2069L11.6776 56.7661C11.7591 56.5419 11.864 56.3268 11.9905 56.1244C12.3911 55.4835 12.9933 54.9939 13.7026 54.7326L27.8998 49.502C27.9423 49.4864 27.9881 49.482 28.0328 49.4895C28.2916 49.5326 28.3318 49.8879 28.0892 49.9878L15.8494 55.0278C15.4243 55.2028 15.067 55.5102 14.8305 55.9044C14.7503 56.0381 14.685 56.1801 14.6356 56.3281L13.9016 58.5302L13.3478 60.4686C13.2863 60.6839 13.255 60.9068 13.255 61.1308V61.9659C13.255 62.8359 12.5498 63.5411 11.6798 63.5411Z" fill="#BF262B"/>
<path d="M18.2285 63.5411H18.1311C17.1017 63.5411 16.3187 62.6168 16.4879 61.6014L16.5998 60.259C16.6328 59.8622 16.7132 59.4708 16.8391 59.0931L17.2961 57.722L17.4415 57.0676C17.5577 56.5448 17.8206 56.066 18.1992 55.6873C18.4568 55.4298 18.7619 55.2246 19.0977 55.0832L33.8684 48.864C33.9193 48.8426 33.9739 48.8315 34.029 48.8315C34.4713 48.8315 34.6051 49.4321 34.2047 49.6199L23.284 54.7432C22.9585 54.8959 22.662 55.104 22.4078 55.3582L21.9783 55.7877C21.5544 56.2116 21.2101 56.7084 20.962 57.2542L20.7672 57.6829C20.6089 58.0311 20.4911 58.3963 20.4161 58.7713L20.084 60.4319C20.0574 60.5648 20.0403 60.6995 20.0328 60.8349L19.9742 61.8898C19.9227 62.8162 19.1564 63.5411 18.2285 63.5411Z" fill="#BF262B"/>
<path d="M1.18797 85.1506L0.981782 84.9069C0.347857 84.1578 0 83.2081 0 82.2267C0 79.7017 2.23642 77.762 4.7361 78.1191L11.3151 79.059L18.9123 79.8672H31.3334C32.2402 79.8672 32.9754 79.1321 32.9754 78.2252C32.9754 78.0283 33.0108 77.833 33.0799 77.6487L33.9452 75.3412L35.3297 72.0397C35.7922 70.9367 36.6348 70.0361 37.7046 69.5012L38.3884 69.1593C38.7654 68.9708 39.1647 68.8307 39.5769 68.7424L40.7012 68.5015C41.0456 68.4277 41.3967 68.3905 41.7489 68.3905H46.7151H54.4154C55.3007 68.3905 56.1701 68.6255 56.9348 69.0716L57.1481 69.196C57.5191 69.4124 57.8606 69.6757 58.1643 69.9794L59.5675 71.3826C60.0463 71.8614 60.4228 72.4325 60.6743 73.0612L61.263 74.5329L61.5312 75.045C62.4492 76.7974 64.3141 77.8438 66.2881 77.7142L80.4147 76.7861C83.0837 76.6108 85.142 74.366 85.0858 71.6918L84.0983 24.7148C84.0744 23.5789 84.9887 22.6453 86.1248 22.6453C87.2222 22.6453 88.1203 23.5186 88.151 24.6156L89.4128 69.7606C89.4893 72.4958 91.7501 74.6615 94.486 74.6204L130.757 74.075C131.742 74.0601 132.548 74.8545 132.548 75.8395C132.548 76.8141 131.758 77.6042 130.783 77.6042H127.395C125.866 77.6042 124.627 78.8431 124.627 80.3713V82.2678C124.627 83.0329 123.928 83.6067 123.177 83.4566C122.611 83.3433 122.203 82.8457 122.203 82.2678V81.855C122.203 81.5078 122.098 81.1689 121.901 80.8828L120.78 79.2527C120.544 78.9094 120.266 78.5969 119.952 78.3225L118.534 77.0818C118.074 76.6791 117.544 76.3643 116.97 76.1529L115.604 75.6495C115.05 75.4455 114.465 75.3412 113.875 75.3412H112.903C112.214 75.3412 111.531 75.4839 110.899 75.7604L110.319 76.0142C109.629 76.316 109.017 76.7695 108.527 77.3411L108.001 77.9548C107.559 78.47 107.227 79.0697 107.025 79.7174L106.523 81.322C106.041 82.77 104.686 83.7467 103.159 83.7467H101.997H99.928C99.6914 83.7467 99.4551 83.7634 99.2209 83.7969L95.3984 84.343C95.1642 84.3764 94.9279 84.3932 94.6913 84.3932H89.5507H87.1903C85.9621 84.3932 84.8394 85.0871 84.2901 86.1856C84.1343 86.4973 83.9292 86.7819 83.6828 87.0283L82.9438 87.7672C82.503 88.2081 81.9836 88.5626 81.4124 88.8125L80.6486 89.1466C80.0167 89.4231 79.3343 89.5658 78.6445 89.5658H76.6294C76.3001 89.5658 75.9717 89.5333 75.6488 89.4687L74.2647 89.1919C73.8958 89.1181 73.5365 89.003 73.1934 88.8486L71.1802 87.9426C70.7151 87.7334 70.2919 87.4413 69.9313 87.0807L69.3347 86.4841C68.9275 86.0768 68.3751 85.848 67.7991 85.848H66.9206C66.2064 85.848 65.6274 86.427 65.6274 87.1412C65.6274 87.8554 65.0485 88.4343 64.3343 88.4343H64.0918C63.2437 88.4343 62.5562 87.7468 62.5562 86.8987V86.8321C62.5562 86.7152 62.5434 86.5987 62.518 86.4846L61.9096 83.7467L60.922 80.9249C60.8263 80.6513 60.7069 80.3866 60.5653 80.1337L59.1207 77.5541C58.723 76.8439 58.1579 76.2415 57.4744 75.7993L55.7671 74.6946L53.7892 73.6536C53.0711 73.2756 52.2719 73.0782 51.4605 73.0782H49.8995C49.1857 73.0782 48.4803 73.231 47.8305 73.5263L45.7311 74.4806C45.4181 74.6229 45.1205 74.7971 44.8433 75.0004L43.5875 75.9213C43.0906 76.2857 42.6652 76.7389 42.333 77.258L40.7564 79.7215C40.4213 80.2451 40.1868 80.8266 40.0648 81.4362L39.8564 82.4785C39.69 83.3102 39.3148 84.086 38.766 84.7328L36.175 87.7865C35.4687 88.619 34.4756 89.156 33.3923 89.2915L32.4915 89.4041C31.6781 89.5057 30.962 89.9894 30.5638 90.706C30.4479 90.9147 30.3034 91.1063 30.1346 91.2751L28.751 92.6587C28.4434 92.9662 28.0971 93.2324 27.7206 93.4503L25.8258 94.5473C25.4216 94.7813 24.9865 94.9576 24.5333 95.0709L22.5807 95.559C22.1841 95.6582 21.7768 95.7083 21.368 95.7083H19.5279C19.1191 95.7083 18.7118 95.6582 18.3152 95.559L16.4855 95.1016C15.9518 94.9682 15.4438 94.7476 14.9819 94.4487L12.9315 93.122L11.0393 91.4821C10.6878 91.1774 10.3998 90.8065 10.1918 90.3905L9.68104 89.369C9.39462 88.7962 8.80915 88.4343 8.16871 88.4343C8.00415 88.4343 7.84047 88.4103 7.68286 88.363L5.20605 87.62C4.86147 87.5166 4.52906 87.3763 4.21458 87.2016L2.57669 86.2917C2.04866 85.9983 1.57815 85.6117 1.18797 85.1506Z" fill="#1D2226"/>
<path d="M44.6373 77.016L45.7451 76.311L46.5475 75.8296C47.0854 75.5069 47.6792 75.2882 48.298 75.1851L50.8328 74.7626C51.1045 74.7173 51.3794 74.6946 51.6548 74.6946H52.536C53.2797 74.6946 54.0141 74.8605 54.6856 75.1803L56.6085 76.0959C56.9089 76.239 57.2228 76.3517 57.5455 76.4323L57.7387 76.4806C58.9649 76.7872 60.0294 77.5467 60.7182 78.6064L61.096 79.1876C61.5245 79.8469 61.7915 80.598 61.8753 81.3798L62.2328 84.7165V88.1024C62.2328 88.5373 62.1761 88.9704 62.064 89.3907L61.1847 92.688C61.0228 93.2952 60.7479 93.8664 60.3744 94.3717L58.5285 96.8691C58.3047 97.1719 58.0474 97.4484 57.7615 97.6934L55.7616 99.4077C55.1287 99.9502 54.3703 100.326 53.5552 100.5L50.7891 101.093C50.4448 101.167 50.0936 101.204 49.7415 101.204H46.7965C46.1032 101.204 45.4174 101.06 44.7828 100.781L42.2141 99.6505C41.8751 99.5014 41.5537 99.315 41.2559 99.0948L38.8512 97.3175C38.2811 96.8961 37.8071 96.3582 37.4607 95.7396L36.2008 93.4899C35.8854 92.9267 35.682 92.3077 35.602 91.6671L35.4952 90.8127C35.3307 89.4968 35.6957 88.1695 36.5098 87.1228L39.7643 82.9384L41.704 80.1905L43.462 78.0558C43.7966 77.6495 44.1932 77.2986 44.6373 77.016Z" fill="#1D2226"/>
<path d="M48.2658 81.275L48.9361 80.8808C49.7045 80.4288 50.5797 80.1904 51.4712 80.1904H51.5613C52.0987 80.1904 52.6326 80.2771 53.1424 80.447L53.8084 80.669C54.4607 80.8864 55.0611 81.236 55.5721 81.696L55.7099 81.82C56.175 82.2386 56.5574 82.7407 56.8372 83.3004L57.2998 84.2255C57.4629 84.5518 57.5899 84.895 57.6784 85.2489L57.9191 86.212C58.0987 86.9302 58.1165 87.6793 57.9713 88.4053L57.7439 89.5423C57.6128 90.1979 57.3516 90.8205 56.9756 91.3733L55.9884 92.8252C55.2271 93.9447 54.0443 94.7077 52.7105 94.9397L52.0865 95.0482C51.422 95.1637 50.7411 95.1437 50.0846 94.9892L49.872 94.9392C48.8696 94.7033 47.9644 94.1637 47.2802 93.3939L46.4271 92.4342C45.9772 91.9281 45.6348 91.3359 45.4207 90.6935L45.1299 89.8212C44.8965 89.1208 44.821 88.3774 44.909 87.6443L45.1063 86.0001C45.2073 85.1582 45.5208 84.3558 46.0173 83.6684L46.7475 82.6572C47.1526 82.0964 47.6696 81.6258 48.2658 81.275Z" fill="white"/>
<path d="M47.2351 86.8027L47.2603 86.6766C47.4316 85.8201 47.8526 85.0334 48.4703 84.4157C49.0147 83.8713 49.6918 83.4783 50.4347 83.2758L50.5428 83.2463C50.8988 83.1492 51.2661 83.1 51.6351 83.1H51.8121C52.5955 83.1 53.3577 83.354 53.9843 83.8241C54.6165 84.2981 55.0761 84.966 55.2932 85.7258L55.4151 86.1526C55.5412 86.5939 55.6052 87.0506 55.6052 87.5096V88.0904C55.6052 88.95 55.3716 89.7935 54.9293 90.5306L54.7737 90.7899C54.3683 91.4657 53.7625 91.9985 53.0405 92.3144C52.097 92.7271 51.0263 92.7388 50.074 92.3467L49.915 92.2812C49.1965 91.9854 48.5742 91.4961 48.1172 90.8677L48.0769 90.8122C47.7117 90.3101 47.4558 89.737 47.3257 89.1299L47.2485 88.7698C47.1097 88.1219 47.1051 87.4524 47.2351 86.8027Z" fill="#F3700C"/>
<path d="M110.824 76.5569L111.071 76.4237C111.8 76.0314 112.614 75.826 113.442 75.826H117.203C119.964 75.826 122.203 78.0646 122.203 80.826V81.9685V83.7466V86.4457C122.203 87.2219 122.022 87.9875 121.675 88.6818L120.748 90.5356L119.514 92.3867C119.051 93.0813 118.421 93.6489 117.683 94.0378L116.517 94.6512C116.001 94.9228 115.442 95.102 114.864 95.1808L112.829 95.4583C112.399 95.5169 111.963 95.5194 111.533 95.4656L109.396 95.1985C108.675 95.1084 107.982 94.8622 107.366 94.4771L106.284 93.8008C105.907 93.5648 105.562 93.2794 105.26 92.9522L104.384 92.0026C103.982 91.5669 103.66 91.0632 103.434 90.5149L102.891 89.1958C102.727 88.7975 102.615 88.3798 102.558 87.9529L101.998 83.7466V83.457C101.998 81.8358 103.133 80.4363 104.72 80.1023C104.952 80.0534 105.188 80.0288 105.426 80.0288H106.103C106.976 80.0288 107.794 79.6074 108.302 78.8973L109.509 77.5806C109.887 77.1682 110.331 76.8221 110.824 76.5569Z" fill="#1D2226"/>
<path d="M111.408 81.1246L111.588 80.9446C112.083 80.4495 112.694 80.0851 113.364 79.8839C113.759 79.7656 114.168 79.7054 114.58 79.7054H115.067C115.614 79.7054 116.153 79.8328 116.643 80.0773C117.214 80.3628 117.696 80.7982 118.039 81.3368L118.151 81.5134C118.478 82.0264 118.691 82.6031 118.777 83.2051L118.92 84.203C118.953 84.4372 118.97 84.6735 118.97 84.9101V85.8178C118.97 86.4779 118.839 87.1315 118.585 87.7409L118.433 88.1072C118.253 88.5386 118.014 88.9427 117.722 89.3076L117.703 89.331C117.157 90.014 116.438 90.5394 115.622 90.8534L115.358 90.9551C114.967 91.1052 114.553 91.1822 114.135 91.1822C113.293 91.1822 112.481 90.8707 111.856 90.3077L111.771 90.2314C111.402 89.8988 111.103 89.4952 110.892 89.0446L110.549 88.3079C110.24 87.6458 110.08 86.9241 110.08 86.1935V85.2013V84.3326C110.08 83.6283 110.244 82.9336 110.559 82.3037C110.777 81.8675 111.064 81.4694 111.408 81.1246Z" fill="white"/>
<path d="M112.826 82.6896L113.078 82.4608C113.541 82.04 114.144 81.8069 114.769 81.8069C115.488 81.8069 116.172 82.114 116.649 82.6509L116.668 82.672C117.009 83.0563 117.228 83.534 117.296 84.0437L117.398 84.8095C117.475 85.3872 117.426 85.9748 117.255 86.5318L117.221 86.6433C116.992 87.3871 116.533 88.0392 115.911 88.5061L115.505 88.8101C115.131 89.0908 114.676 89.2425 114.208 89.2425C113.541 89.2425 112.911 88.9345 112.501 88.4078L112.371 88.2399C112.139 87.942 111.975 87.5972 111.89 87.2295L111.747 86.609C111.607 86.0013 111.602 85.3703 111.733 84.7605L111.791 84.4899C111.939 83.7963 112.301 83.1667 112.826 82.6896Z" fill="#1D2226"/>
<path d="M41.6089 15.5252L42.0171 17.4642C42.1113 17.9115 41.8177 18.3483 41.368 18.4301C40.8697 18.5207 40.411 18.1379 40.411 17.6314V15.4622C40.411 15.2942 40.3948 15.1266 40.3628 14.9617L38.1734 3.70195C38.1583 3.62469 38.1967 3.54688 38.2671 3.51168C38.3701 3.46016 38.494 3.52034 38.5172 3.6332L40.8307 14.8921C40.8686 15.077 41.0313 15.2096 41.22 15.2096C41.4079 15.2096 41.5702 15.3412 41.6089 15.5252Z" fill="#1D2226"/>
<path d="M53.5041 13.8192V16.351C53.5041 16.8812 53.0743 17.311 52.5441 17.311C51.9482 17.311 51.4962 16.7736 51.5983 16.1865L52.0086 13.8275C52.0321 13.6921 52.1497 13.5932 52.2872 13.5932C52.4287 13.5932 52.5485 13.4886 52.5675 13.3484L54.2841 0.707929C54.3003 0.588825 54.402 0.5 54.5222 0.5C54.6677 0.5 54.7798 0.628375 54.7603 0.772592L53.054 13.3367C53.0356 13.4724 53.1411 13.5932 53.278 13.5932C53.4029 13.5932 53.5041 13.6944 53.5041 13.8192Z" fill="#1D2226"/>
<path d="M41.6089 15.5252L42.0171 17.4642C42.1113 17.9115 41.8177 18.3483 41.368 18.4301C40.8697 18.5207 40.411 18.1379 40.411 17.6314V15.4622C40.411 15.2942 40.3948 15.1266 40.3628 14.9617L38.1734 3.70195C38.1583 3.62469 38.1967 3.54688 38.2671 3.51168C38.3701 3.46016 38.494 3.52034 38.5172 3.6332L40.8307 14.8921C40.8686 15.077 41.0313 15.2096 41.22 15.2096C41.4079 15.2096 41.5702 15.3412 41.6089 15.5252Z" stroke="#1D2226"/>
<path d="M53.5041 13.8192V16.351C53.5041 16.8812 53.0743 17.311 52.5441 17.311C51.9482 17.311 51.4962 16.7736 51.5983 16.1865L52.0086 13.8275C52.0321 13.6921 52.1497 13.5932 52.2872 13.5932C52.4287 13.5932 52.5485 13.4886 52.5675 13.3484L54.2841 0.707929C54.3003 0.588825 54.402 0.5 54.5222 0.5C54.6677 0.5 54.7798 0.628375 54.7603 0.772592L53.054 13.3367C53.0356 13.4724 53.1411 13.5932 53.278 13.5932C53.4029 13.5932 53.5041 13.6944 53.5041 13.8192Z" stroke="#1D2226"/>
<path d="M47.5234 47.3767V67.9055" stroke="#873A00"/>
<path d="M77.1044 50.2864H71.1235" stroke="#873A00"/>
<path d="M1.61621 71.0638V67.9275C1.61621 65.0512 4.08597 62.7958 6.95046 63.0562L16.1642 63.5412L23.7614 63.0562H27.6518C30.4133 63.0562 32.6518 65.2948 32.6518 68.0562V68.6788C32.6518 69.1311 32.5905 69.5812 32.4694 70.017L32.3636 70.3979C32.0291 71.6021 31.2558 72.6373 30.196 73.2997L29.1802 73.9346C28.3855 74.4312 27.4673 74.6946 26.5302 74.6946H19.1327C18.4863 74.6946 17.879 75.0039 17.4988 75.5266C17.0732 76.1118 16.3671 76.4247 15.6477 76.3469L10.8299 75.8261L4.87176 74.8782C4.11916 74.7585 3.41879 74.4188 2.85882 73.9019C2.06671 73.1707 1.61621 72.1418 1.61621 71.0638Z" fill="#1D2226"/>
<path d="M25.8544 73.4013H21.5881C19.6181 73.4013 18.0619 71.7299 18.2022 69.765C18.3291 67.9886 19.8072 66.6123 21.5881 66.6123H29.1318C30.4511 66.6123 31.5206 67.6818 31.5206 69.0011C31.5206 69.2392 31.485 69.476 31.4149 69.7036L31.3286 69.9841C31.0346 70.9397 30.4196 71.7645 29.5877 72.3191L29.5488 72.345C29.1419 72.6164 28.6932 72.8191 28.2206 72.9451L27.1427 73.2325C26.7224 73.3446 26.2893 73.4013 25.8544 73.4013Z" fill="white"/>
<path d="M3.39453 65.8041L16.0028 66.6123M3.39453 68.8753L16.0028 69.8452M3.71782 71.3L15.5178 72.2698M31.5206 69.0011C31.5206 67.6818 30.4511 66.6123 29.1318 66.6123H21.5881C19.8072 66.6123 18.3291 67.9886 18.2022 69.765C18.0619 71.7299 19.6181 73.4013 21.5881 73.4013H25.8544C26.2893 73.4013 26.7224 73.3446 27.1427 73.2325L28.2206 72.9451C28.6932 72.8191 29.1419 72.6164 29.5488 72.345L29.5877 72.3191C30.4196 71.7645 31.0346 70.9397 31.3286 69.9841L31.4149 69.7036C31.485 69.476 31.5206 69.2392 31.5206 69.0011Z" stroke="white" stroke-width="2"/>
<path d="M109.71 32.5H114.6V54.55L100.08 41.68V53.5H95.22V31.45L109.71 44.32V32.5ZM119.038 32.5H124.198V53.5H119.038V32.5ZM130.958 46.12C131.378 46.88 131.848 47.54 132.368 48.1C132.908 48.66 133.488 49.09 134.108 49.39C134.748 49.69 135.418 49.84 136.118 49.84C136.858 49.84 137.468 49.66 137.948 49.3C138.428 48.92 138.668 48.41 138.668 47.77C138.668 47.23 138.528 46.8 138.248 46.48C137.968 46.14 137.518 45.82 136.898 45.52C136.278 45.22 135.458 44.88 134.438 44.5C133.938 44.32 133.358 44.07 132.698 43.75C132.058 43.43 131.448 43.02 130.868 42.52C130.288 42 129.808 41.38 129.428 40.66C129.048 39.92 128.858 39.03 128.858 37.99C128.858 36.75 129.178 35.68 129.818 34.78C130.478 33.88 131.358 33.2 132.458 32.74C133.578 32.26 134.818 32.02 136.178 32.02C137.578 32.02 138.788 32.25 139.808 32.71C140.848 33.17 141.708 33.75 142.388 34.45C143.068 35.15 143.588 35.86 143.948 36.58L140.078 38.74C139.778 38.24 139.428 37.81 139.028 37.45C138.648 37.07 138.218 36.78 137.738 36.58C137.278 36.36 136.778 36.25 136.238 36.25C135.518 36.25 134.968 36.41 134.588 36.73C134.208 37.03 134.018 37.41 134.018 37.87C134.018 38.35 134.198 38.77 134.558 39.13C134.938 39.49 135.468 39.82 136.148 40.12C136.848 40.42 137.688 40.74 138.668 41.08C139.408 41.36 140.098 41.69 140.738 42.07C141.378 42.43 141.938 42.87 142.418 43.39C142.918 43.91 143.308 44.51 143.588 45.19C143.868 45.87 144.008 46.65 144.008 47.53C144.008 48.59 143.788 49.54 143.348 50.38C142.928 51.2 142.348 51.89 141.608 52.45C140.888 53.01 140.058 53.43 139.118 53.71C138.198 54.01 137.248 54.16 136.268 54.16C134.908 54.16 133.638 53.92 132.458 53.44C131.298 52.94 130.288 52.27 129.428 51.43C128.568 50.59 127.898 49.67 127.418 48.67L130.958 46.12ZM146.888 37.03V32.5H163.358L153.428 49.15H162.278V53.5H145.448L155.228 37.03H146.888ZM164.809 37.03V32.5H181.429V37.03H175.639V53.5H170.569V37.03H164.809ZM183.576 32.5H188.646V46.24C188.646 47.3 188.926 48.16 189.486 48.82C190.046 49.48 190.886 49.81 192.006 49.81C193.146 49.81 193.996 49.48 194.556 48.82C195.116 48.16 195.396 47.3 195.396 46.24V32.5H200.466V46.6C200.466 47.92 200.246 49.07 199.806 50.05C199.386 51.03 198.786 51.84 198.006 52.48C197.246 53.1 196.346 53.57 195.306 53.89C194.286 54.21 193.186 54.37 192.006 54.37C190.826 54.37 189.726 54.21 188.706 53.89C187.686 53.57 186.786 53.1 186.006 52.48C185.246 51.84 184.646 51.03 184.206 50.05C183.786 49.07 183.576 47.92 183.576 46.6V32.5ZM204.761 32.5H210.011V53.5H204.761V32.5ZM217.151 32.5H223.091L214.571 42.34L223.541 53.5H217.391L208.541 42.49L217.151 32.5Z" fill="black"/>
</svg>
